# xmcd
#
# Track frame offsets:
#	150
#	20446
#	36343
#	55518
#	71433
#	90733
#	105663
#	121231
#	139425
#	161376
#	178071
#	196984
#	213242
#	240808
#
# Disc length: 3406 seconds
#
# Revision: 1
# Processed by: cddbd v1.5.2PL0 Copyright (c) Steve Scherf et al.
# Submitted via: audiograbber 1.83.01
#
DISCID=b60d4c0e
DTITLE=James Cotton - Deep In The Blues
DYEAR=1900
DGENRE=
TTITLE0=Down at Your Buryin'
TTITLE1=All Walks of Life
TTITLE2=You Got My Nose Open
TTITLE3=Dealing With the Devil
TTITLE4=Strange Things Happen
TTITLE5=Country Boy
TTITLE6=Vineyard Blues
TTITLE7=Worried Life Blues
TTITLE8=Two Trains Running
TTITLE9=Ozark Mountain Railroad
TTITLE10=Sad Letter Blues
TTITLE11=Play With Your Poodle
TTITLE12=Blues in My Sleep
TTITLE13=Everybody's Fishin'
EXTD=
EXTT0=
EXTT1=
EXTT2=
EXTT3=
EXTT4=
EXTT5=
EXTT6=
EXTT7=
EXTT8=
EXTT9=
EXTT10=
EXTT11=
EXTT12=
EXTT13=
PLAYORDER=
